<?xml version="1.0" encoding="utf-8"?>
<!-- Generator: Adobe Illustrator 27.0.1, SVG Export Plug-In . SVG Version: 6.00 Build 0)  -->
<svg version="1.1" xmlns="http://www.w3.org/2000/svg" xmlns:xlink="http://www.w3.org/1999/xlink" x="0px" y="0px"
	 viewBox="0 0 754 320" style="enable-background:new 0 0 754 320;" xml:space="preserve">
<style type="text/css">
	.st0{fill:#EDEDED;}
	.st1{fill:#E3E3E3;}
	.st2{fill:#FFFFFF;}
	.st3{display:none;fill:#FFFFFF;}
	.st4{display:none;fill:#525252;}
	.st5{display:none;fill:#FFFFFF;fill-opacity:1.000000e-02;}
	.st6{display:none;fill:#E0E0E0;}
	.st7{display:none;}
	.st8{display:inline;}
	.st9{display:inline;clip-path:url(#SVGID_00000005241256093851411480000009912542868554744977_);}
	.st10{fill:#FFFFFF;fill-opacity:1.000000e-02;}
	.st11{fill:#525252;}
	.st12{display:inline;clip-path:url(#SVGID_00000053528205376833247800000005427868192163299225_);}
	.st13{display:inline;clip-path:url(#SVGID_00000029009571636672795060000003993100097337178506_);}
	.st14{display:inline;clip-path:url(#SVGID_00000171706267113227661300000014828876154617146291_);}
	.st15{display:inline;clip-path:url(#SVGID_00000163073435557487046250000014925865335682951301_);}
	.st16{fill:none;stroke:#4589FF;stroke-miterlimit:10;}
	.st17{fill:#4589FF;}
	.st18{fill:#E0E0E0;}
	.st19{clip-path:url(#SVGID_00000128470295196415786690000006282815630881147809_);}
	.st20{clip-path:url(#SVGID_00000179623234185841987430000002929461753343786633_);}
	.st21{clip-path:url(#SVGID_00000049183101828540965000000013609035261496826026_);}
	.st22{font-family:'IBMPlexSans-SmBld';}
	.st23{font-size:14px;}
	.st24{fill:#161616;}
	.st25{font-family:'IBMPlexSans';}
	.st26{font-size:11px;}
</style>
<g id="Background">
	<g>
		<rect x="0.5" y="0.5" class="st0" width="753" height="319"/>
		<path class="st1" d="M753,1v318H1V1H753 M754,0H0v320h754V0L754,0z"/>
	</g>
</g>
<g id="White_nav">
	<rect x="9.1" y="7.8" class="st2" width="224" height="312"/>
</g>
<g id="Layer_1">
	<path class="st3" d="M-4.4-0.9h256v718h-256V-0.9z"/>
	<path class="st4" d="M36.7,28.1v-9.8h3.6c2.5,0,4.2,1.6,4.2,4.9s-1.7,4.9-4.2,4.9H36.7z M38.6,26.5h1.7c1.4,0,2.3-0.8,2.3-2.5v-1.5
		c0-1.7-0.9-2.5-2.3-2.5h-1.7V26.5z M48.2,28.3c-1.5,0-2.3-0.9-2.3-2.2c0-1.5,1.1-2.2,3.1-2.2h1.2v-0.5c0-0.8-0.4-1.3-1.4-1.3
		c-0.8,0-1.3,0.4-1.7,0.9l-1.1-1c0.5-0.8,1.4-1.4,2.9-1.4c2,0,3,0.9,3,2.6v3.4h0.7v1.4h-1c-0.8,0-1.2-0.5-1.4-1.3h-0.1
		C50.1,27.8,49.3,28.3,48.2,28.3z M48.8,27c0.8,0,1.4-0.4,1.4-1v-1h-1.1c-0.9,0-1.4,0.3-1.4,0.9v0.2C47.7,26.7,48.1,27,48.8,27z
		 M56.8,28.3c-1.4,0-2.3-0.5-3-1.3l1.1-1.1c0.5,0.6,1.2,1,2,1c0.9,0,1.2-0.3,1.2-0.8c0-0.4-0.3-0.7-0.9-0.8l-0.7-0.1
		C54.9,25,54,24.3,54,22.9c0-1.4,1.1-2.3,2.8-2.3c1.4,0,2.2,0.4,2.9,1.1l-1,1c-0.4-0.4-1-0.8-1.8-0.8c-0.8,0-1.1,0.3-1.1,0.8
		c0,0.5,0.3,0.7,1,0.8l0.7,0.1c1.6,0.2,2.4,0.9,2.4,2.2C59.8,27.3,58.6,28.3,56.8,28.3z M61.5,28.1V17.8h1.8V22h0.1
		c0.3-0.8,0.9-1.4,2-1.4c1.5,0,2.3,1,2.3,2.9v4.6H66v-4.4c0-1-0.3-1.6-1.2-1.6c-0.7,0-1.5,0.4-1.5,1.2v4.8H61.5z M69.9,28.1V17.8
		h1.8V22h0.1c0.3-0.8,1-1.4,2-1.4c1.8,0,2.9,1.4,2.9,3.8c0,2.4-1,3.8-2.9,3.8c-1,0-1.7-0.6-2-1.4h-0.1v1.2H69.9z M73.2,26.8
		c0.9,0,1.6-0.7,1.6-1.7v-1.3c0-1-0.6-1.7-1.6-1.7c-0.9,0-1.5,0.5-1.5,1.2v2.3C71.7,26.4,72.4,26.8,73.2,26.8z M81.4,28.3
		c-2.1,0-3.4-1.5-3.4-3.8c0-2.3,1.3-3.8,3.4-3.8c2.1,0,3.4,1.5,3.4,3.8C84.8,26.8,83.5,28.3,81.4,28.3z M81.4,26.8
		c0.9,0,1.5-0.6,1.5-1.7v-1.4c0-1.1-0.6-1.7-1.5-1.7c-0.9,0-1.5,0.6-1.5,1.7v1.4C79.9,26.2,80.4,26.8,81.4,26.8z M88.3,28.3
		c-1.5,0-2.3-0.9-2.3-2.2c0-1.5,1.1-2.2,3.1-2.2h1.2v-0.5c0-0.8-0.4-1.3-1.4-1.3c-0.8,0-1.3,0.4-1.7,0.9l-1.1-1
		c0.5-0.8,1.4-1.4,2.9-1.4c2,0,3,0.9,3,2.6v3.4h0.7v1.4h-1c-0.8,0-1.2-0.5-1.4-1.3h-0.1C90.2,27.8,89.4,28.3,88.3,28.3z M88.9,27
		c0.8,0,1.4-0.4,1.4-1v-1h-1.1c-0.9,0-1.4,0.3-1.4,0.9v0.2C87.8,26.7,88.2,27,88.9,27z M96.3,28.1h-1.8v-7.3h1.8v1.5h0.1
		c0.2-0.8,0.8-1.5,1.9-1.5h0.4v1.7h-0.6c-1.2,0-1.8,0.3-1.8,1.1V28.1z M104.6,28.1v-1.2h-0.1c-0.3,0.8-1,1.4-2,1.4
		c-1.8,0-2.9-1.4-2.9-3.8c0-2.4,1-3.8,2.9-3.8c1,0,1.8,0.5,2,1.4h0.1v-4.3h1.8v10.4H104.6z M103.1,26.8c0.9,0,1.5-0.4,1.5-1.2v-2.3
		c0-0.7-0.7-1.2-1.5-1.2c-0.9,0-1.6,0.7-1.6,1.7v1.3C101.6,26.1,102.2,26.8,103.1,26.8z"/>
	<path class="st4" d="M38.6,60.1h-1.8v-9.8h4.4c1.8,0,2.9,1.2,2.9,3c0,1.8-1.1,3-2.9,3h-2.5V60.1z M38.6,51.9v2.8h2.4
		c0.7,0,1.1-0.4,1.1-1.1V53c0-0.7-0.4-1.1-1.1-1.1H38.6z M47.4,60.1h-1.8v-7.3h1.8v1.5h0.1c0.2-0.8,0.8-1.5,1.9-1.5h0.4v1.7h-0.6
		c-1.2,0-1.8,0.3-1.8,1.1V60.1z M54.1,60.3c-2.1,0-3.4-1.5-3.4-3.8c0-2.3,1.3-3.8,3.4-3.8c2.1,0,3.4,1.5,3.4,3.8
		C57.5,58.8,56.2,60.3,54.1,60.3z M54.1,58.8c0.9,0,1.5-0.6,1.5-1.7v-1.4c0-1.1-0.6-1.7-1.5-1.7c-0.9,0-1.5,0.6-1.5,1.7v1.4
		C52.6,58.2,53.1,58.8,54.1,58.8z M59.2,61.5v-8.7H61V61c0,1.2-0.6,1.9-1.9,1.9h-1v-1.4H59.2z M60.1,51.7c-0.7,0-1.1-0.4-1.1-0.9
		v-0.3c0-0.5,0.3-0.9,1.1-0.9c0.7,0,1,0.4,1,0.9v0.3C61.2,51.4,60.8,51.7,60.1,51.7z M66.2,60.3c-2.2,0-3.4-1.5-3.4-3.8
		c0-2.3,1.2-3.8,3.4-3.8c2.3,0,3.3,1.7,3.3,3.7v0.6h-4.9v0.2c0,1,0.6,1.8,1.8,1.8c0.9,0,1.4-0.4,1.9-1l1,1.1
		C68.6,59.8,67.6,60.3,66.2,60.3z M66.2,54c-0.9,0-1.6,0.7-1.6,1.7v0.1h3v-0.1C67.6,54.7,67.1,54,66.2,54z M74.1,60.3
		c-2.2,0-3.4-1.5-3.4-3.8c0-2.3,1.2-3.8,3.4-3.8c1.5,0,2.4,0.7,2.9,1.8l-1.5,0.7c-0.2-0.6-0.6-1.1-1.4-1.1c-1,0-1.5,0.7-1.5,1.7v1.3
		c0,1,0.5,1.7,1.5,1.7c0.9,0,1.3-0.5,1.5-1.1l1.4,0.7C76.5,59.6,75.5,60.3,74.1,60.3z M80.8,60.1c-1.2,0-1.9-0.7-1.9-1.9v-4h-1.1
		v-1.4h0.6c0.5,0,0.7-0.3,0.7-0.8v-1.2h1.6v2h1.5v1.4h-1.5v4.5h1.4v1.4H80.8z M86.3,60.3c-1.4,0-2.3-0.5-3-1.3l1.1-1.1
		c0.5,0.6,1.2,1,2,1c0.9,0,1.2-0.3,1.2-0.8c0-0.4-0.3-0.7-0.9-0.8L86,57.2c-1.6-0.2-2.4-0.9-2.4-2.2c0-1.4,1.1-2.3,2.8-2.3
		c1.4,0,2.2,0.4,2.9,1.1l-1.1,1c-0.4-0.4-1-0.8-1.8-0.8c-0.8,0-1.1,0.3-1.1,0.8c0,0.5,0.3,0.7,1,0.8l0.7,0.1
		c1.6,0.2,2.4,0.9,2.4,2.2C89.4,59.3,88.2,60.3,86.3,60.3z"/>
	<path class="st4" d="M38.6,88.3v3.8h-1.8v-9.8h4.4c1.8,0,2.9,1.2,2.9,3c0,1.3-0.6,2.4-1.8,2.8l2,4h-2.1l-1.8-3.8H38.6z M38.6,86.8
		h2.4c0.7,0,1.1-0.4,1.1-1.1V85c0-0.7-0.4-1.1-1.1-1.1h-2.4V86.8z M48.8,92.3c-2.2,0-3.4-1.5-3.4-3.8c0-2.3,1.2-3.8,3.4-3.8
		c2.3,0,3.3,1.7,3.3,3.7v0.6h-4.9v0.2c0,1.1,0.6,1.8,1.8,1.8c0.9,0,1.4-0.4,1.9-1l1,1.1C51.2,91.8,50.2,92.3,48.8,92.3z M48.8,86
		c-0.9,0-1.6,0.7-1.6,1.7v0.1h3v-0.1C50.2,86.7,49.7,86,48.8,86z M56.2,92.3c-1.4,0-2.3-0.5-3-1.3l1.1-1.1c0.5,0.6,1.2,1,2,1
		c0.9,0,1.2-0.3,1.2-0.8c0-0.4-0.3-0.7-0.9-0.8l-0.7-0.1c-1.6-0.2-2.4-0.9-2.4-2.2c0-1.4,1.1-2.3,2.8-2.3c1.4,0,2.2,0.4,2.9,1.1
		l-1,1.1c-0.4-0.4-1-0.8-1.8-0.8c-0.8,0-1.1,0.3-1.1,0.8c0,0.5,0.3,0.7,1,0.8l0.7,0.1c1.6,0.2,2.4,0.9,2.4,2.2
		C59.2,91.3,58,92.3,56.2,92.3z M63.9,92.3c-2.1,0-3.4-1.5-3.4-3.8c0-2.3,1.3-3.8,3.4-3.8c2.1,0,3.4,1.5,3.4,3.8
		C67.3,90.8,66,92.3,63.9,92.3z M63.9,90.8c0.9,0,1.5-0.6,1.5-1.7v-1.4c0-1.1-0.6-1.7-1.5-1.7c-0.9,0-1.5,0.6-1.5,1.7v1.4
		C62.3,90.2,62.9,90.8,63.9,90.8z M73.4,92.1v-1.2h-0.1c-0.3,0.7-0.8,1.4-2,1.4c-1.5,0-2.3-1-2.3-2.9v-4.6h1.8v4.4
		c0,1,0.4,1.6,1.2,1.6c0.7,0,1.4-0.4,1.4-1.2v-4.8h1.8v7.3H73.4z M79.2,92.1h-1.8v-7.3h1.8v1.5h0.1c0.2-0.8,0.8-1.5,1.9-1.5h0.4v1.7
		H81c-1.2,0-1.8,0.3-1.8,1.1V92.1z M85.9,92.3c-2.2,0-3.4-1.5-3.4-3.8c0-2.3,1.2-3.8,3.4-3.8c1.5,0,2.4,0.7,2.9,1.8l-1.5,0.7
		c-0.2-0.6-0.6-1.1-1.4-1.1c-1,0-1.5,0.7-1.5,1.7v1.3c0,1,0.5,1.7,1.5,1.7c0.9,0,1.3-0.5,1.5-1.1l1.4,0.7
		C88.3,91.6,87.3,92.3,85.9,92.3z M93.2,92.3c-2.2,0-3.4-1.5-3.4-3.8c0-2.3,1.2-3.8,3.4-3.8c2.3,0,3.3,1.7,3.3,3.7v0.6h-4.9v0.2
		c0,1.1,0.6,1.8,1.8,1.8c0.9,0,1.4-0.4,1.9-1l1,1.1C95.6,91.8,94.6,92.3,93.2,92.3z M93.2,86c-0.9,0-1.6,0.7-1.6,1.7v0.1h3v-0.1
		C94.6,86.7,94.1,86,93.2,86z M104.4,92.1h-1c-1.2,0-1.8-0.6-1.8-1.8v-8.6h1.8v8.9h1V92.1z M106.9,83.7c-0.7,0-1.1-0.4-1.1-0.9v-0.3
		c0-0.5,0.3-0.9,1.1-0.9c0.7,0,1,0.4,1,0.9v0.3C107.9,83.4,107.6,83.7,106.9,83.7z M106,92.1v-7.3h1.8v7.3H106z M112.4,92.3
		c-1.4,0-2.3-0.5-3-1.3l1.1-1.1c0.5,0.6,1.2,1,2,1c0.9,0,1.2-0.3,1.2-0.8c0-0.4-0.3-0.7-0.9-0.8l-0.7-0.1c-1.6-0.2-2.4-0.9-2.4-2.2
		c0-1.4,1.1-2.3,2.8-2.3c1.4,0,2.2,0.4,2.9,1.1l-1,1.1c-0.4-0.4-1-0.8-1.8-0.8c-0.8,0-1.1,0.3-1.1,0.8c0,0.5,0.3,0.7,1,0.8l0.7,0.1
		c1.6,0.2,2.4,0.9,2.4,2.2C115.4,91.3,114.2,92.3,112.4,92.3z M119.3,92.1c-1.2,0-1.9-0.7-1.9-1.9v-4h-1.1v-1.4h0.6
		c0.5,0,0.7-0.3,0.7-0.8v-1.2h1.6v2h1.5v1.4h-1.5v4.5h1.4v1.4H119.3z"/>
	<path class="st4" d="M40.5,141.3c-2.6,0-4.2-1.7-4.2-5c0-3.3,1.6-5.1,4.2-5.1c1.8,0,2.9,0.7,3.6,2.3l-1.6,0.8
		c-0.3-0.9-0.9-1.5-2-1.5c-1.4,0-2.3,1-2.3,2.7v1.5c0,1.7,0.9,2.6,2.3,2.6c1.1,0,1.8-0.7,2.1-1.6l1.5,0.9
		C43.4,140.4,42.2,141.3,40.5,141.3z M48.6,141.3c-2.1,0-3.4-1.5-3.4-3.8c0-2.3,1.3-3.8,3.4-3.8c2.1,0,3.4,1.5,3.4,3.8
		C52,139.8,50.7,141.3,48.6,141.3z M48.6,139.8c0.9,0,1.5-0.6,1.5-1.7v-1.4c0-1.1-0.6-1.7-1.5-1.7c-0.9,0-1.5,0.6-1.5,1.7v1.4
		C47.1,139.2,47.7,139.8,48.6,139.8z M55.6,141.1h-1.8v-7.3h1.8v1.2h0.1c0.3-0.8,0.9-1.4,2-1.4c1.5,0,2.3,1,2.3,2.9v4.6h-1.8v-4.4
		c0-1-0.3-1.6-1.2-1.6c-0.7,0-1.5,0.4-1.5,1.2V141.1z M64.5,141.1c-1.2,0-1.9-0.7-1.9-1.9v-4h-1.1v-1.4H62c0.5,0,0.7-0.3,0.7-0.8
		v-1.2h1.6v2h1.5v1.4h-1.5v4.5h1.4v1.4H64.5z M69.4,141.3c-1.5,0-2.3-0.9-2.3-2.2c0-1.5,1.1-2.2,3.1-2.2h1.2v-0.5
		c0-0.8-0.4-1.3-1.4-1.3c-0.8,0-1.3,0.4-1.7,0.9l-1.1-1c0.5-0.8,1.4-1.4,2.9-1.4c2,0,3,0.9,3,2.6v3.4h0.7v1.4h-1
		c-0.8,0-1.2-0.5-1.4-1.3h-0.1C71.3,140.8,70.5,141.3,69.4,141.3z M70,140c0.8,0,1.4-0.4,1.4-1.1v-1h-1.1c-0.9,0-1.4,0.3-1.4,0.9
		v0.2C68.9,139.7,69.3,140,70,140z M76.4,132.7c-0.7,0-1-0.4-1-0.9v-0.3c0-0.5,0.3-0.9,1-0.9c0.7,0,1.1,0.4,1.1,0.9v0.3
		C77.5,132.4,77.2,132.7,76.4,132.7z M75.5,141.1v-7.3h1.8v7.3H75.5z M81.4,141.1h-1.8v-7.3h1.8v1.2h0.1c0.3-0.8,0.9-1.4,2-1.4
		c1.5,0,2.3,1,2.3,2.9v4.6H84v-4.4c0-1-0.4-1.6-1.2-1.6c-0.7,0-1.5,0.4-1.5,1.2V141.1z M90.9,141.3c-2.2,0-3.4-1.5-3.4-3.8
		c0-2.3,1.2-3.8,3.4-3.8c2.3,0,3.3,1.7,3.3,3.7v0.6h-4.9v0.2c0,1.1,0.6,1.8,1.8,1.8c0.9,0,1.4-0.4,1.9-1l1,1.1
		C93.3,140.8,92.3,141.3,90.9,141.3z M90.9,135c-0.9,0-1.6,0.7-1.6,1.7v0.1h3v-0.1C92.3,135.7,91.8,135,90.9,135z M97.7,141.1h-1.8
		v-7.3h1.8v1.5h0.1c0.2-0.8,0.8-1.5,1.9-1.5h0.4v1.7h-0.6c-1.2,0-1.8,0.3-1.8,1.1V141.1z M104,141.3c-1.4,0-2.3-0.5-3-1.3l1.1-1.1
		c0.5,0.6,1.2,1,2,1c0.9,0,1.2-0.3,1.2-0.8c0-0.4-0.3-0.7-0.9-0.8l-0.7-0.1c-1.6-0.2-2.4-0.9-2.4-2.2c0-1.4,1.1-2.3,2.8-2.3
		c1.4,0,2.2,0.4,2.9,1.1l-1.1,1.1c-0.4-0.4-1-0.8-1.8-0.8c-0.8,0-1.1,0.3-1.1,0.8c0,0.5,0.3,0.7,1,0.8l0.7,0.1
		c1.6,0.2,2.4,0.9,2.4,2.2C107,140.3,105.8,141.3,104,141.3z"/>
	<path class="st4" d="M230.6,136.1l-5,5l-0.7-0.7l4.3-4.3l-4.3-4.3l0.7-0.7L230.6,136.1z"/>
	<path class="st4" d="M36.7,173.1v-9.8h3.6c2.5,0,4.2,1.6,4.2,4.9s-1.7,4.9-4.2,4.9H36.7z M38.6,171.5h1.7c1.4,0,2.3-0.8,2.3-2.5
		v-1.5c0-1.7-0.9-2.5-2.3-2.5h-1.7V171.5z M48.2,173.3c-1.5,0-2.3-0.9-2.3-2.2c0-1.5,1.1-2.2,3.1-2.2h1.2v-0.5
		c0-0.8-0.4-1.3-1.4-1.3c-0.8,0-1.3,0.4-1.7,0.9l-1.1-1c0.5-0.8,1.4-1.4,2.9-1.4c2,0,3,0.9,3,2.6v3.4h0.7v1.4h-1
		c-0.8,0-1.2-0.5-1.4-1.3h-0.1C50.1,172.8,49.3,173.3,48.2,173.3z M48.8,172c0.8,0,1.4-0.4,1.4-1.1v-1h-1.1c-0.9,0-1.4,0.3-1.4,0.9
		v0.2C47.7,171.7,48.1,172,48.8,172z M56.6,173.1c-1.2,0-1.9-0.7-1.9-1.9v-4h-1.1v-1.4h0.6c0.5,0,0.7-0.3,0.7-0.8v-1.2h1.6v2H58v1.4
		h-1.5v4.5h1.4v1.4H56.6z M61.5,173.3c-1.5,0-2.3-0.9-2.3-2.2c0-1.5,1.1-2.2,3.1-2.2h1.2v-0.5c0-0.8-0.4-1.3-1.4-1.3
		c-0.8,0-1.3,0.4-1.7,0.9l-1.1-1c0.5-0.8,1.4-1.4,2.9-1.4c2,0,3,0.9,3,2.6v3.4h0.7v1.4h-1c-0.8,0-1.2-0.5-1.4-1.3h-0.1
		C63.4,172.8,62.6,173.3,61.5,173.3z M62.1,172c0.8,0,1.4-0.4,1.4-1.1v-1h-1.1c-0.9,0-1.4,0.3-1.4,0.9v0.2
		C61,171.7,61.4,172,62.1,172z M67.7,173.1v-10.4h1.8v4.3h0.1c0.3-0.8,1.1-1.4,2-1.4c1.8,0,2.9,1.4,2.9,3.8c0,2.4-1,3.8-2.9,3.8
		c-1,0-1.7-0.6-2-1.4h-0.1v1.2H67.7z M71,171.8c0.9,0,1.6-0.7,1.6-1.7v-1.3c0-1-0.6-1.7-1.6-1.7c-0.9,0-1.5,0.5-1.5,1.2v2.3
		C69.5,171.4,70.1,171.8,71,171.8z M78.1,173.3c-1.5,0-2.3-0.9-2.3-2.2c0-1.5,1.1-2.2,3.1-2.2h1.2v-0.5c0-0.8-0.4-1.3-1.4-1.3
		c-0.8,0-1.3,0.4-1.7,0.9l-1.1-1c0.5-0.8,1.4-1.4,2.9-1.4c2,0,3,0.9,3,2.6v3.4h0.7v1.4h-1c-0.8,0-1.2-0.5-1.4-1.3h-0.1
		C80,172.8,79.2,173.3,78.1,173.3z M78.7,172c0.8,0,1.4-0.4,1.4-1.1v-1H79c-0.9,0-1.4,0.3-1.4,0.9v0.2C77.6,171.7,78,172,78.7,172z
		 M86.6,173.3c-1.4,0-2.3-0.5-3-1.3l1.1-1.1c0.5,0.6,1.2,1,2,1c0.9,0,1.2-0.3,1.2-0.8c0-0.4-0.3-0.7-0.9-0.8l-0.7-0.1
		c-1.6-0.2-2.4-0.9-2.4-2.2c0-1.4,1.1-2.3,2.8-2.3c1.4,0,2.2,0.4,2.9,1.1l-1.1,1.1c-0.4-0.4-1-0.8-1.8-0.8c-0.8,0-1.1,0.3-1.1,0.8
		c0,0.5,0.3,0.7,1,0.8l0.7,0.1c1.6,0.2,2.4,0.9,2.4,2.2C89.6,172.3,88.5,173.3,86.6,173.3z M94.3,173.3c-2.2,0-3.4-1.5-3.4-3.8
		c0-2.3,1.2-3.8,3.4-3.8c2.3,0,3.3,1.7,3.3,3.7v0.6h-4.9v0.2c0,1.1,0.6,1.8,1.8,1.8c0.9,0,1.4-0.4,1.9-1l1,1.1
		C96.8,172.8,95.7,173.3,94.3,173.3z M94.3,167c-0.9,0-1.6,0.7-1.6,1.7v0.1h3v-0.1C95.8,167.7,95.2,167,94.3,167z M101.7,173.3
		c-1.4,0-2.3-0.5-3-1.3l1.1-1.1c0.5,0.6,1.2,1,2,1c0.9,0,1.2-0.3,1.2-0.8c0-0.4-0.3-0.7-0.9-0.8l-0.7-0.1c-1.6-0.2-2.4-0.9-2.4-2.2
		c0-1.4,1.1-2.3,2.8-2.3c1.4,0,2.2,0.4,2.9,1.1l-1,1.1c-0.4-0.4-1-0.8-1.8-0.8c-0.8,0-1.1,0.3-1.1,0.8c0,0.5,0.3,0.7,1,0.8l0.7,0.1
		c1.6,0.2,2.4,0.9,2.4,2.2C104.8,172.3,103.6,173.3,101.7,173.3z"/>
	<path class="st4" d="M230.6,168.1l-5,5l-0.7-0.7l4.3-4.3l-4.3-4.3l0.7-0.7L230.6,168.1z"/>
	<path class="st4" d="M40.7,205.1h-4.4v-1.5h1.3v-6.8h-1.3v-1.5h4.4v1.5h-1.3v6.8h1.3V205.1z M44.5,205.1h-1.8v-7.3h1.8v1.2h0.1
		c0.3-0.8,0.9-1.4,2-1.4c1.5,0,2.3,1,2.3,2.9v4.6h-1.8v-4.4c0-1-0.4-1.6-1.2-1.6c-0.7,0-1.5,0.4-1.5,1.2V205.1z M51.4,205.1v-5.9
		h-1.1v-1.4h1.1v-1.1c0-1.3,0.7-2,2-2h1.3v1.4h-1.5v1.6h1.5v1.4h-1.5v5.9H51.4z M57.9,205.1h-1.8v-7.3h1.8v1.5H58
		c0.2-0.8,0.8-1.5,1.9-1.5h0.4v1.7h-0.6c-1.2,0-1.8,0.3-1.8,1.1V205.1z M63.4,205.3c-1.5,0-2.3-0.9-2.3-2.2c0-1.5,1.1-2.2,3.1-2.2
		h1.2v-0.5c0-0.8-0.4-1.3-1.4-1.3c-0.8,0-1.3,0.4-1.7,0.9l-1.1-1c0.5-0.8,1.4-1.4,2.9-1.4c2,0,3,0.9,3,2.6v3.4H68v1.4h-1
		c-0.8,0-1.2-0.5-1.4-1.3h-0.1C65.3,204.8,64.5,205.3,63.4,205.3z M64,204c0.8,0,1.4-0.4,1.4-1.1v-1h-1.1c-0.9,0-1.4,0.3-1.4,0.9
		v0.2C62.9,203.7,63.3,204,64,204z M72,205.3c-1.4,0-2.3-0.5-3-1.3l1.1-1.1c0.5,0.6,1.2,1,2,1c0.9,0,1.2-0.3,1.2-0.8
		c0-0.4-0.3-0.7-0.9-0.8l-0.7-0.1c-1.6-0.2-2.4-0.9-2.4-2.2c0-1.4,1.1-2.3,2.8-2.3c1.4,0,2.2,0.4,2.9,1.1l-1,1.1
		c-0.4-0.4-1-0.8-1.8-0.8c-0.8,0-1.1,0.3-1.1,0.8c0,0.5,0.3,0.7,1,0.8l0.7,0.1c1.6,0.2,2.4,0.9,2.4,2.2
		C75,204.3,73.8,205.3,72,205.3z M78.9,205.1c-1.2,0-1.9-0.7-1.9-1.9v-4H76v-1.4h0.6c0.5,0,0.7-0.3,0.7-0.8v-1.2h1.6v2h1.5v1.4h-1.5
		v4.5h1.4v1.4H78.9z M83.8,205.1H82v-7.3h1.8v1.5h0.1c0.2-0.8,0.8-1.5,1.9-1.5h0.4v1.7h-0.6c-1.2,0-1.8,0.3-1.8,1.1V205.1z
		 M92.1,205.1v-1.2H92c-0.3,0.7-0.8,1.4-2,1.4c-1.5,0-2.3-1-2.3-2.9v-4.6h1.8v4.4c0,1,0.4,1.6,1.2,1.6c0.7,0,1.4-0.4,1.4-1.2v-4.8
		h1.8v7.3H92.1z M99,205.3c-2.2,0-3.4-1.5-3.4-3.8c0-2.3,1.2-3.8,3.4-3.8c1.5,0,2.4,0.7,2.9,1.8l-1.5,0.7c-0.2-0.6-0.6-1.1-1.4-1.1
		c-1,0-1.5,0.7-1.5,1.7v1.3c0,1,0.5,1.7,1.5,1.7c0.9,0,1.3-0.5,1.5-1.1l1.4,0.7C101.4,204.6,100.4,205.3,99,205.3z M105.7,205.1
		c-1.2,0-1.9-0.7-1.9-1.9v-4h-1.1v-1.4h0.6c0.5,0,0.7-0.3,0.7-0.8v-1.2h1.6v2h1.5v1.4h-1.5v4.5h1.4v1.4H105.7z M113.2,205.1v-1.2
		h-0.1c-0.3,0.7-0.8,1.4-2,1.4c-1.5,0-2.3-1-2.3-2.9v-4.6h1.8v4.4c0,1,0.4,1.6,1.2,1.6c0.7,0,1.4-0.4,1.4-1.2v-4.8h1.8v7.3H113.2z
		 M119,205.1h-1.8v-7.3h1.8v1.5h0.1c0.2-0.8,0.8-1.5,1.9-1.5h0.4v1.7h-0.6c-1.2,0-1.8,0.3-1.8,1.1V205.1z M125.7,205.3
		c-2.2,0-3.4-1.5-3.4-3.8c0-2.3,1.2-3.8,3.4-3.8c2.3,0,3.3,1.7,3.3,3.7v0.6h-4.9v0.2c0,1.1,0.6,1.8,1.8,1.8c0.9,0,1.4-0.4,1.9-1
		l1,1.1C128.2,204.8,127.1,205.3,125.7,205.3z M125.7,199c-0.9,0-1.6,0.7-1.6,1.7v0.1h3v-0.1C127.2,199.7,126.6,199,125.7,199z"/>
	<path class="st4" d="M230.6,200.1l-5,5l-0.7-0.7l4.3-4.3l-4.3-4.3l0.7-0.7L230.6,200.1z"/>
	<path class="st4" d="M40.5,237.3c-2.6,0-4.3-1.8-4.3-5.1s1.7-5.1,4.3-5.1c2.6,0,4.3,1.8,4.3,5.1S43.1,237.3,40.5,237.3z
		 M40.5,235.6c1.4,0,2.3-1,2.3-2.7v-1.5c0-1.7-0.9-2.7-2.3-2.7c-1.4,0-2.3,1-2.3,2.7v1.5C38.2,234.6,39.1,235.6,40.5,235.6z
		 M46.7,237.1v-10.4h1.8v4.3h0.1c0.3-0.8,1-1.4,2-1.4c1.8,0,2.9,1.4,2.9,3.8c0,2.4-1,3.8-2.9,3.8c-1,0-1.7-0.6-2-1.4h-0.1v1.2H46.7z
		 M50,235.8c0.9,0,1.6-0.7,1.6-1.7v-1.3c0-1-0.6-1.7-1.6-1.7c-0.9,0-1.5,0.5-1.5,1.2v2.3C48.5,235.4,49.2,235.8,50,235.8z
		 M57.7,237.3c-1.4,0-2.3-0.5-3-1.3l1.1-1.1c0.5,0.6,1.2,1,2,1c0.9,0,1.2-0.3,1.2-0.8c0-0.4-0.3-0.7-0.9-0.8l-0.7-0.1
		c-1.6-0.2-2.4-0.9-2.4-2.2c0-1.4,1.1-2.3,2.8-2.3c1.4,0,2.2,0.4,2.9,1.1l-1,1.1c-0.4-0.4-1-0.8-1.8-0.8c-0.8,0-1.1,0.3-1.1,0.8
		c0,0.5,0.3,0.7,1,0.8l0.7,0.1c1.6,0.2,2.4,0.9,2.4,2.2C60.7,236.3,59.5,237.3,57.7,237.3z M65.4,237.3c-2.2,0-3.4-1.5-3.4-3.8
		c0-2.3,1.2-3.8,3.4-3.8c2.3,0,3.3,1.7,3.3,3.7v0.6h-4.9v0.2c0,1.1,0.6,1.8,1.8,1.8c0.9,0,1.4-0.4,1.9-1l1,1.1
		C67.8,236.8,66.7,237.3,65.4,237.3z M65.3,231c-0.9,0-1.6,0.7-1.6,1.7v0.1h3v-0.1C66.8,231.7,66.3,231,65.3,231z M72.2,237.1h-1.8
		v-7.3h1.8v1.5h0.1c0.2-0.8,0.8-1.5,1.9-1.5h0.4v1.7H74c-1.2,0-1.8,0.3-1.8,1.1V237.1z M79.8,237.1h-2.1l-2.4-7.3H77l1,3.1l0.7,2.6
		h0.1l0.7-2.6l1-3.1h1.7L79.8,237.1z M85.3,237.3c-1.5,0-2.3-0.9-2.3-2.2c0-1.5,1.1-2.2,3.1-2.2h1.2v-0.5c0-0.8-0.4-1.3-1.4-1.3
		c-0.8,0-1.3,0.4-1.7,0.9l-1.1-1c0.5-0.8,1.4-1.4,2.9-1.4c2,0,3,0.9,3,2.6v3.4h0.7v1.4h-1c-0.8,0-1.2-0.5-1.4-1.3h-0.1
		C87.2,236.8,86.4,237.3,85.3,237.3z M85.9,236c0.8,0,1.4-0.4,1.4-1.1v-1h-1.1c-0.9,0-1.4,0.3-1.4,0.9v0.2
		C84.8,235.7,85.2,236,85.9,236z M91.5,237.1v-10.4h1.8v4.3h0.1c0.3-0.8,1-1.4,2-1.4c1.8,0,2.9,1.4,2.9,3.8c0,2.4-1,3.8-2.9,3.8
		c-1,0-1.7-0.6-2-1.4h-0.1v1.2H91.5z M94.8,235.8c0.9,0,1.6-0.7,1.6-1.7v-1.3c0-1-0.6-1.7-1.6-1.7c-0.9,0-1.5,0.5-1.5,1.2v2.3
		C93.3,235.4,93.9,235.8,94.8,235.8z M101,228.7c-0.7,0-1-0.4-1-0.9v-0.3c0-0.5,0.3-0.9,1-0.9c0.7,0,1.1,0.4,1.1,0.9v0.3
		C102,228.4,101.7,228.7,101,228.7z M100.1,237.1v-7.3h1.8v7.3H100.1z M106.9,237.1h-1c-1.2,0-1.8-0.6-1.8-1.8v-8.6h1.8v8.9h1V237.1
		z M109.3,228.7c-0.7,0-1-0.4-1-0.9v-0.3c0-0.5,0.3-0.9,1-0.9c0.7,0,1.1,0.4,1.1,0.9v0.3C110.3,228.4,110,228.7,109.3,228.7z
		 M108.4,237.1v-7.3h1.8v7.3H108.4z M114.7,237.1c-1.2,0-1.9-0.7-1.9-1.9v-4h-1.1v-1.4h0.6c0.5,0,0.7-0.3,0.7-0.8v-1.2h1.6v2h1.5
		v1.4h-1.5v4.5h1.4v1.4H114.7z M121,233.7l1.3-3.9h1.7l-2.9,8.6c-0.4,1.1-0.9,1.5-2.1,1.5h-1.1v-1.4h1.3l0.3-1l-2.6-7.7h1.8l1.3,3.9
		l0.5,1.8h0.1L121,233.7z"/>
	<path class="st4" d="M230.6,232.1l-5,5l-0.7-0.7l4.3-4.3l-4.3-4.3l0.7-0.7L230.6,232.1z"/>
	<path class="st4" d="M38.6,269.1h-1.8v-9.8h4.4c1.8,0,2.9,1.2,2.9,3c0,1.8-1.1,3-2.9,3h-2.5V269.1z M38.6,260.9v2.8h2.4
		c0.7,0,1.1-0.4,1.1-1.1V262c0-0.7-0.4-1.1-1.1-1.1H38.6z M48.5,269.1h-1c-1.2,0-1.8-0.6-1.8-1.8v-8.6h1.8v8.9h1V269.1z M51.8,269.3
		c-1.5,0-2.3-0.9-2.3-2.2c0-1.5,1.1-2.2,3.1-2.2h1.2v-0.5c0-0.8-0.4-1.3-1.4-1.3c-0.8,0-1.3,0.4-1.7,0.9l-1.1-1
		c0.5-0.8,1.4-1.4,2.9-1.4c2,0,3,0.9,3,2.6v3.4h0.7v1.4h-1c-0.8,0-1.2-0.5-1.4-1.3h-0.1C53.7,268.8,52.9,269.3,51.8,269.3z
		 M52.4,268c0.8,0,1.4-0.4,1.4-1v-1h-1.1c-0.9,0-1.4,0.3-1.4,0.9v0.2C51.3,267.7,51.7,268,52.4,268z M60.2,269.1
		c-1.2,0-1.9-0.7-1.9-1.9v-4h-1.1v-1.4h0.6c0.5,0,0.7-0.3,0.7-0.8v-1.2h1.6v2h1.5v1.4h-1.5v4.5h1.4v1.4H60.2z M63.6,269.1v-5.9h-1.1
		v-1.4h1.1v-1c0-1.3,0.7-2,2-2h1.3v1.4h-1.5v1.6h1.5v1.4h-1.5v5.9H63.6z M71.2,269.3c-2.1,0-3.4-1.5-3.4-3.8c0-2.3,1.3-3.8,3.4-3.8
		c2.1,0,3.4,1.5,3.4,3.8C74.6,267.8,73.3,269.3,71.2,269.3z M71.2,267.8c0.9,0,1.5-0.6,1.5-1.7v-1.4c0-1.1-0.6-1.7-1.5-1.7
		c-0.9,0-1.5,0.6-1.5,1.7v1.4C69.7,267.2,70.3,267.8,71.2,267.8z M78.1,269.1h-1.8v-7.3h1.8v1.5h0.1c0.2-0.8,0.8-1.5,1.9-1.5h0.4
		v1.7H80c-1.2,0-1.8,0.3-1.8,1.1V269.1z M83.8,269.1H82v-7.3h1.8v1.2h0.1c0.3-0.8,0.9-1.4,2-1.4c1,0,1.8,0.5,2.1,1.5h0
		c0.3-0.8,1.1-1.5,2.2-1.5c1.4,0,2.2,1,2.2,2.9v4.6h-1.8v-4.4c0-1.1-0.4-1.6-1.2-1.6c-0.7,0-1.4,0.4-1.4,1.2v4.8h-1.8v-4.4
		c0-1.1-0.4-1.6-1.2-1.6c-0.7,0-1.4,0.4-1.4,1.2V269.1z M106.1,269.1h-1.9l-0.8-2.5h-3.5l-0.8,2.5h-1.9l3.3-9.8h2.3L106.1,269.1z
		 M103,265l-1.3-4h-0.1l-1.2,4H103z M112,269.1v-1.2h-0.1c-0.3,0.7-0.8,1.4-2,1.4c-1.5,0-2.3-1-2.3-2.9v-4.6h1.8v4.4
		c0,1,0.4,1.6,1.2,1.6c0.7,0,1.4-0.4,1.4-1.2v-4.8h1.8v7.3H112z M118.3,269.1c-1.2,0-1.9-0.7-1.9-1.9v-4h-1.1v-1.4h0.6
		c0.5,0,0.7-0.3,0.7-0.8v-1.2h1.6v2h1.5v1.4h-1.5v4.5h1.4v1.4H118.3z M124.2,269.3c-2.1,0-3.4-1.5-3.4-3.8c0-2.3,1.3-3.8,3.4-3.8
		c2.1,0,3.4,1.5,3.4,3.8C127.6,267.8,126.3,269.3,124.2,269.3z M124.2,267.8c0.9,0,1.5-0.6,1.5-1.7v-1.4c0-1.1-0.6-1.7-1.5-1.7
		c-0.9,0-1.5,0.6-1.5,1.7v1.4C122.7,267.2,123.3,267.8,124.2,267.8z M131.2,269.1h-1.8v-7.3h1.8v1.2h0.1c0.3-0.8,0.9-1.4,2-1.4
		c1,0,1.8,0.5,2.1,1.5h0c0.3-0.8,1.1-1.5,2.2-1.5c1.4,0,2.2,1,2.2,2.9v4.6H138v-4.4c0-1.1-0.4-1.6-1.2-1.6c-0.7,0-1.4,0.4-1.4,1.2
		v4.8h-1.8v-4.4c0-1.1-0.4-1.6-1.2-1.6c-0.7,0-1.4,0.4-1.4,1.2V269.1z M143.8,269.3c-1.5,0-2.3-0.9-2.3-2.2c0-1.5,1.1-2.2,3.1-2.2
		h1.2v-0.5c0-0.8-0.4-1.3-1.4-1.3c-0.8,0-1.3,0.4-1.7,0.9l-1.1-1c0.5-0.8,1.4-1.4,2.9-1.4c2,0,3,0.9,3,2.6v3.4h0.7v1.4h-1
		c-0.8,0-1.2-0.5-1.4-1.3h-0.1C145.7,268.8,144.9,269.3,143.8,269.3z M144.4,268c0.8,0,1.4-0.4,1.4-1v-1h-1.1
		c-0.9,0-1.4,0.3-1.4,0.9v0.2C143.3,267.7,143.7,268,144.4,268z M152.2,269.1c-1.2,0-1.9-0.7-1.9-1.9v-4h-1.1v-1.4h0.6
		c0.5,0,0.7-0.3,0.7-0.8v-1.2h1.6v2h1.5v1.4h-1.5v4.5h1.4v1.4H152.2z M156.2,260.7c-0.7,0-1-0.4-1-0.9v-0.3c0-0.5,0.3-0.9,1-0.9
		c0.7,0,1.1,0.4,1.1,0.9v0.3C157.2,260.4,156.9,260.7,156.2,260.7z M155.3,269.1v-7.3h1.8v7.3H155.3z M162.2,269.3
		c-2.1,0-3.4-1.5-3.4-3.8c0-2.3,1.3-3.8,3.4-3.8c2.1,0,3.4,1.5,3.4,3.8C165.6,267.8,164.3,269.3,162.2,269.3z M162.2,267.8
		c0.9,0,1.5-0.6,1.5-1.7v-1.4c0-1.1-0.6-1.7-1.5-1.7c-0.9,0-1.5,0.6-1.5,1.7v1.4C160.7,267.2,161.3,267.8,162.2,267.8z M169.2,269.1
		h-1.8v-7.3h1.8v1.2h0.1c0.3-0.8,0.9-1.4,2-1.4c1.5,0,2.3,1,2.3,2.9v4.6h-1.8v-4.4c0-1-0.4-1.6-1.2-1.6c-0.7,0-1.5,0.4-1.5,1.2
		V269.1z"/>
	<path class="st4" d="M230.6,264.1l-5,5l-0.7-0.7l4.3-4.3l-4.3-4.3l0.7-0.7L230.6,264.1z"/>
	<rect x="-4.4" y="280.1" class="st3" width="256" height="32"/>
	<path class="st4" d="M39.7,301.3c-1.7,0-2.8-0.7-3.6-1.6l1.2-1.2c0.7,0.8,1.5,1.2,2.5,1.2c1.1,0,1.7-0.5,1.7-1.4
		c0-0.7-0.3-1.1-1.3-1.2l-0.9-0.1c-2-0.3-2.9-1.2-2.9-2.8c0-1.8,1.4-2.9,3.5-2.9c1.5,0,2.6,0.5,3.3,1.4l-1.3,1.2
		c-0.5-0.6-1.1-1-2.2-1c-1,0-1.6,0.4-1.6,1.1c0,0.7,0.4,1,1.4,1.2l0.9,0.2c2,0.4,2.9,1.2,2.9,2.8C43.4,300,42.1,301.3,39.7,301.3z
		 M48.3,301.3c-2.2,0-3.4-1.5-3.4-3.8c0-2.3,1.2-3.8,3.4-3.8c2.3,0,3.3,1.7,3.3,3.7v0.6h-4.9v0.2c0,1,0.6,1.8,1.8,1.8
		c0.9,0,1.4-0.4,1.9-1l1,1.1C50.7,300.8,49.6,301.3,48.3,301.3z M48.2,295c-0.9,0-1.6,0.7-1.6,1.7v0.1h3v-0.1
		C49.7,295.7,49.2,295,48.2,295z M56.2,301.3c-2.2,0-3.4-1.5-3.4-3.8c0-2.3,1.2-3.8,3.4-3.8c1.5,0,2.4,0.7,2.9,1.8l-1.5,0.7
		c-0.2-0.6-0.6-1.1-1.4-1.1c-1,0-1.5,0.7-1.5,1.7v1.3c0,1,0.5,1.7,1.5,1.7c0.9,0,1.3-0.5,1.5-1.1l1.4,0.7
		C58.6,300.6,57.6,301.3,56.2,301.3z M65,301.1v-1.2h-0.1c-0.3,0.7-0.8,1.4-2,1.4c-1.5,0-2.3-1-2.3-2.9v-4.6h1.8v4.4
		c0,1,0.4,1.6,1.2,1.6c0.7,0,1.4-0.4,1.4-1.2v-4.8h1.8v7.3H65z M70.8,301.1H69v-7.3h1.8v1.5h0.1c0.2-0.8,0.8-1.5,1.9-1.5h0.4v1.7
		h-0.6c-1.2,0-1.8,0.3-1.8,1.1V301.1z M75.6,292.7c-0.7,0-1.1-0.4-1.1-0.9v-0.3c0-0.5,0.3-0.9,1.1-0.9c0.7,0,1,0.4,1,0.9v0.3
		C76.6,292.4,76.3,292.7,75.6,292.7z M74.7,301.1v-7.3h1.8v7.3H74.7z M81,301.1c-1.2,0-1.9-0.7-1.9-1.9v-4H78v-1.4h0.6
		c0.5,0,0.7-0.3,0.7-0.8v-1.2h1.6v2h1.5v1.4h-1.5v4.5h1.4v1.4H81z M87.3,297.7l1.3-3.9h1.7l-2.9,8.6c-0.4,1-0.9,1.5-2.1,1.5h-1.1
		v-1.4h1.3l0.3-1l-2.6-7.7H85l1.3,3.9l0.5,1.8h0.1L87.3,297.7z"/>
	<rect x="219.6" y="288.1" class="st5" width="16" height="16"/>
	<path class="st4" d="M230.6,296.1l-5,5l-0.7-0.7l4.3-4.3l-4.3-4.3l0.7-0.7L230.6,296.1z"/>
	<rect x="-4.4" y="312.1" class="st3" width="256" height="17"/>
	<g class="st7">
		<g class="st8">
			<path class="st16" d="M110.4,135.2c13.1-19.1,55.5-75.6,127.9-93.6c21.8-5.4,41.5-6.1,57.5-5"/>
			<g>
				<polygon class="st17" points="292.4,40.6 291.8,39.8 295.5,36.6 292,33.1 292.7,32.4 297,36.7 				"/>
			</g>
		</g>
	</g>
	<g class="st7">
		<g class="st8">
			<path class="st16" d="M110.4,169.6C123.5,150.6,165.9,94,238.4,76c21.8-5.4,41.5-6.1,57.5-5"/>
			<g>
				<polygon class="st17" points="292.4,75 291.8,74.3 295.5,71 292,67.5 292.7,66.8 297,71.1 				"/>
			</g>
		</g>
	</g>
	<g class="st7">
		<g class="st8">
			<path class="st16" d="M134.3,201.6c13.1-19.1,55.5-75.6,127.9-93.6c21.8-5.4,41.5-6.1,57.5-5"/>
			<g>
				<polygon class="st17" points="316.3,107 315.6,106.3 319.4,103 315.9,99.5 316.6,98.8 320.8,103.1 				"/>
			</g>
		</g>
	</g>
	<g class="st7">
		<g class="st8">
			<path class="st16" d="M131.5,232.6c14.2-18.3,59.9-72.2,133.2-85.8c22.1-4.1,41.8-3.6,57.7-1.6"/>
			<g>
				<polygon class="st17" points="318.8,148.9 318.2,148.1 322.1,145.1 318.9,141.5 319.6,140.8 323.6,145.3 				"/>
			</g>
		</g>
	</g>
	<g class="st7">
		<g class="st8">
			<path class="st16" d="M177.5,264.6c14.2-18.3,59.9-72.2,133.2-85.8c22.1-4.1,41.8-3.6,57.7-1.6"/>
			<g>
				<polygon class="st17" points="364.8,180.9 364.2,180.1 368.1,177.1 364.9,173.5 365.6,172.8 369.6,177.3 				"/>
			</g>
		</g>
	</g>
	<g class="st7">
		<g class="st8">
			<path class="st16" d="M182.9,299.4c18.4-14.1,76.2-54.7,150.7-49.2c22.4,1.6,41.4,7.1,56.3,13.1"/>
			<g>
				<polygon class="st17" points="385.3,266 384.9,265.1 389.5,263.2 387.3,258.8 388.2,258.3 390.9,263.7 				"/>
			</g>
		</g>
	</g>
	<rect x="26" y="21" class="st10" width="16" height="16"/>
	<path class="st11" d="M39,31.5h-1V34h1V31.5z"/>
	<path class="st11" d="M37,29h-1v5h1V29z"/>
	<path class="st11" d="M31.5,34c-0.7,0-1.3-0.3-1.8-0.7c-0.5-0.5-0.7-1.1-0.7-1.8h1c0,0.3,0.1,0.6,0.3,0.8c0.2,0.2,0.4,0.4,0.7,0.6
		c0.3,0.1,0.6,0.1,0.9,0.1c0.3-0.1,0.6-0.2,0.8-0.4c0.2-0.2,0.4-0.5,0.4-0.8c0.1-0.3,0-0.6-0.1-0.9c-0.1-0.3-0.3-0.5-0.6-0.7
		c-0.2-0.2-0.5-0.3-0.8-0.3v-1c0.7,0,1.3,0.3,1.8,0.7c0.5,0.5,0.7,1.1,0.7,1.8c0,0.7-0.3,1.3-0.7,1.8C32.8,33.7,32.2,34,31.5,34z"/>
	<path class="st11" d="M40,22H28c-0.3,0-0.5,0.1-0.7,0.3S27,22.7,27,23v12c0,0.3,0.1,0.5,0.3,0.7c0.2,0.2,0.4,0.3,0.7,0.3h12
		c0.3,0,0.5-0.1,0.7-0.3c0.2-0.2,0.3-0.4,0.3-0.7V23c0-0.3-0.1-0.5-0.3-0.7C40.5,22.1,40.3,22,40,22z M40,26.5h-7V23h7V26.5z M32,23
		v3.5h-4V23H32z M28,35v-7.5h12l0,7.5H28z"/>
	<rect x="26" y="53" class="st10" width="16" height="16"/>
	<path class="st11" d="M41,62h-5v3.2c0,1,0.6,1.8,1.4,2.3l1.1,0.5l1.1-0.5c0.9-0.4,1.4-1.3,1.4-2.3V62z M38.5,66.9l-0.6-0.3
		c-0.5-0.2-0.9-0.8-0.9-1.4V63h3v2.2c0,0.6-0.3,1.1-0.9,1.4L38.5,66.9z"/>
	<path class="st11" d="M34.5,62h-6c-0.6,0-1,0.4-1,1v2.5c0,0.6,0.4,1,1,1h6v-1h-6V63h6V62z"/>
	<path class="st11" d="M39.5,55H37c-0.6,0-1,0.4-1,1v4.5h1V56h2.5v4.5h1V56C40.5,55.4,40.1,55,39.5,55z"/>
	<path class="st11" d="M33.5,55h-5c-0.6,0-1,0.4-1,1v3.5c0,0.6,0.4,1,1,1h5c0.6,0,1-0.4,1-1V56C34.5,55.4,34.1,55,33.5,55z
		 M28.5,59.5V56h5v3.5H28.5z"/>
	<rect x="26" y="85" class="st10" width="16" height="16"/>
	<path class="st11" d="M40,88h-9v1h9V88z"/>
	<path class="st11" d="M40,97h-9v1h9V97z"/>
	<path class="st11" d="M40,92.5h-9v1h9V92.5z"/>
	<path class="st11" d="M29,92.5h-1v1h1V92.5z"/>
	<path class="st11" d="M29,88h-1v1h1V88z"/>
	<path class="st11" d="M29,97h-1v1h1V97z"/>
	<rect x="26" y="117" class="st18" width="191" height="1"/>
	<rect x="26" y="134" class="st10" width="16" height="16"/>
	<path class="st11" d="M34,145.5c-0.1,0-0.2,0-0.2-0.1l-2.5-1.5c-0.1-0.1-0.2-0.2-0.2-0.4v-3c0-0.2,0.1-0.4,0.2-0.4l2.5-1.5
		c0-0.1,0.2-0.1,0.2-0.1s0.2,0,0.2,0.1l2.5,1.5c0.2,0.1,0.2,0.2,0.2,0.4v3c0,0.2-0.1,0.4-0.2,0.4l-2.5,1.5
		C34.2,145.5,34.1,145.5,34,145.5z M32,143.2l2,1.2l2-1.2v-2.4l-2-1.2l-2,1.2V143.2z"/>
	<path class="st11" d="M34,149.5c-0.1,0-0.2,0-0.2-0.1l-6-3.5c-0.1-0.1-0.2-0.2-0.2-0.4v-7c0-0.2,0.1-0.4,0.2-0.4l6-3.5
		c0.1-0.1,0.2-0.1,0.2-0.1s0.2,0,0.2,0.1l6,3.5l-0.5,0.8l-5.8-3.3l-5.5,3.2v6.4l5.5,3.2l5.5-3.2v-3.8h1v4c0,0.2-0.1,0.4-0.2,0.4
		l-6,3.5C34.2,149.5,34.1,149.5,34,149.5z"/>
	<g>
		<defs>
			<rect id="SVGID_00000049179538302370251410000006027778013902747583_" x="26" y="166" width="16" height="16"/>
		</defs>
		<clipPath id="SVGID_00000047018774053514661500000003257452572521914272_">
			<use xlink:href="#SVGID_00000049179538302370251410000006027778013902747583_"  style="overflow:visible;"/>
		</clipPath>
		<g style="clip-path:url(#SVGID_00000047018774053514661500000003257452572521914272_);">
			<path class="st11" d="M36.5,167.5h-5c-0.5,0-1,0.4-1,1v11c0,0.6,0.5,1,1,1h5c0.5,0,1-0.4,1-1v-11C37.5,167.9,37,167.5,36.5,167.5
				z M31.5,168.5h5v3h-5V168.5z M31.5,172.5h5v3h-5V172.5z M31.5,179.5v-3h5v3H31.5z M27,171v8c0,0.6,0.5,1,1,1h1.5v-1H28v-2h1.5v-1
				H28v-2h1.5v-1H28v-2h1.5v-1H28C27.5,170,27,170.4,27,171z M40,170h-1.5v1H40v2h-1.5v1H40v2h-1.5v1H40v2h-1.5v1H40
				c0.5,0,1-0.4,1-1v-8C41,170.4,40.5,170,40,170z M33,170.5c-0.3,0-0.5-0.2-0.5-0.5s0.2-0.5,0.5-0.5s0.5,0.2,0.5,0.5
				S33.3,170.5,33,170.5z M33,174.5c-0.3,0-0.5-0.2-0.5-0.5s0.2-0.5,0.5-0.5s0.5,0.2,0.5,0.5S33.3,174.5,33,174.5z M33,178.5
				c-0.3,0-0.5-0.2-0.5-0.5s0.2-0.5,0.5-0.5s0.5,0.2,0.5,0.5S33.3,178.5,33,178.5z"/>
		</g>
	</g>
	<rect x="26" y="198" class="st10" width="16" height="16"/>
	<path class="st11" d="M37.7,209l-6.7-6.7V199h-4v4h3.3l6.7,6.7v3.3h4v-4H37.7z M30,202h-2v-2h2V202z M40,212h-2v-2h2V212z"/>
	<path class="st11" d="M41,201c0-0.5-0.2-1-0.5-1.3c-0.3-0.4-0.8-0.6-1.2-0.7c-0.5-0.1-1,0.1-1.4,0.3c-0.4,0.3-0.7,0.7-0.8,1.2h-4.6
		v1h4.6c0.1,0.3,0.3,0.7,0.5,0.9c0.3,0.3,0.6,0.4,0.9,0.5v4.6h1v-4.6c0.4-0.1,0.8-0.4,1.1-0.7C40.9,201.9,41,201.4,41,201z M39,202
		c-0.2,0-0.4-0.1-0.6-0.2c-0.2-0.1-0.3-0.3-0.4-0.4c-0.1-0.2-0.1-0.4-0.1-0.6s0.1-0.4,0.3-0.5c0.1-0.1,0.3-0.2,0.5-0.3
		c0.2,0,0.4,0,0.6,0.1c0.2,0.1,0.3,0.2,0.4,0.4c0.1,0.2,0.2,0.4,0.2,0.6c0,0.3-0.1,0.5-0.3,0.7C39.5,201.9,39.3,202,39,202z"/>
	<path class="st11" d="M35.5,210.5h-4.6c-0.1-0.3-0.3-0.7-0.5-0.9c-0.3-0.3-0.6-0.4-0.9-0.5v-4.6h-1v4.6c-0.3,0.1-0.7,0.3-0.9,0.5
		c-0.3,0.2-0.4,0.6-0.5,0.9c-0.1,0.3-0.1,0.7,0,1c0.1,0.3,0.3,0.6,0.5,0.9c0.2,0.2,0.6,0.4,0.9,0.5c0.3,0.1,0.7,0.1,1,0
		c0.3-0.1,0.6-0.3,0.9-0.5c0.2-0.3,0.4-0.6,0.5-0.9h4.6V210.5z M29,212c-0.2,0-0.4-0.1-0.6-0.2c-0.2-0.1-0.3-0.3-0.4-0.4
		c-0.1-0.2-0.1-0.4-0.1-0.6c0-0.2,0.1-0.4,0.3-0.5c0.1-0.1,0.3-0.2,0.5-0.3c0.2,0,0.4,0,0.6,0.1c0.2,0.1,0.3,0.2,0.4,0.4
		c0.1,0.2,0.2,0.4,0.2,0.6c0,0.3-0.1,0.5-0.3,0.7C29.5,211.9,29.3,212,29,212z"/>
	<g>
		<defs>
			<rect id="SVGID_00000096029041690620395060000010483228004346791817_" x="26" y="230" width="16" height="16"/>
		</defs>
		<clipPath id="SVGID_00000070827066516550891890000003583378458814645657_">
			<use xlink:href="#SVGID_00000096029041690620395060000010483228004346791817_"  style="overflow:visible;"/>
		</clipPath>
		<g style="clip-path:url(#SVGID_00000070827066516550891890000003583378458814645657_);">
			<path class="st11" d="M39,237.5h2.5v1H39V237.5z M39,241.5h2.5v1H39V241.5z M35,238.6l-1.3-1.3L33,238l2,2l3-3l-0.7-0.7L35,238.6
				z M35,242.6l-1.3-1.3L33,242l2,2l3-3l-0.7-0.7L35,242.6z M31.5,242.5h-1.2c-1.5,0-2.8-1.2-2.8-2.8c0-1.4,1.1-2.6,2.6-2.7l0.4,0
				l0-0.4c0.2-2,1.9-3.6,4-3.6c1.5,0,2.9,0.9,3.6,2.2l0.9-0.4c-0.9-1.7-2.6-2.8-4.5-2.8c-2.4,0-4.5,1.7-4.9,4.1
				c-1.8,0.3-3.1,1.9-3.1,3.7c0,2.1,1.7,3.8,3.8,3.8h1.2V242.5z"/>
		</g>
	</g>
	<rect x="26" y="262" class="st10" width="16" height="16"/>
	<path class="st11" d="M34,275.5c-1.8,0-3.5-0.9-4.6-2.5H32v-1h-4v4h1v-1.9c1.2,1.5,3,2.4,5,2.4V275.5z"/>
	<path class="st11" d="M41.5,273.5v-1h-1c0-0.3-0.2-0.6-0.4-0.9l0.8-0.8l-0.7-0.7l-0.8,0.8c-0.2-0.1-0.6-0.3-0.9-0.4v-1h-1v1
		c-0.3,0.1-0.6,0.2-0.9,0.4l-0.8-0.8l-0.7,0.7l0.8,0.8c-0.2,0.2-0.3,0.5-0.4,0.9h-1v1h1c0,0.3,0.2,0.6,0.4,0.9l-0.8,0.8l0.7,0.7
		l0.8-0.8c0.2,0.1,0.6,0.3,0.9,0.4v1h1v-1c0.3-0.1,0.6-0.2,0.9-0.4l0.8,0.8l0.7-0.7l-0.8-0.8c0.2-0.2,0.3-0.5,0.4-0.9H41.5z
		 M38,274.5c-0.8,0-1.5-0.6-1.5-1.5s0.7-1.5,1.5-1.5s1.5,0.6,1.5,1.5S38.8,274.5,38,274.5z"/>
	<path class="st11" d="M36,267h2.6c-1.6-2.5-5-3.2-7.6-1.6c-1.5,1-2.5,2.8-2.5,4.6h-1c0-3.6,2.9-6.5,6.5-6.5c2,0,3.8,0.9,5,2.4V264
		h1v4h-4V267z"/>
	<g>
		<defs>
			<rect id="SVGID_00000176728308065752165480000006655967477205338549_" x="26" y="294" width="16" height="16"/>
		</defs>
		<clipPath id="SVGID_00000160876588127624863370000000713589277810386072_">
			<use xlink:href="#SVGID_00000176728308065752165480000006655967477205338549_"  style="overflow:visible;"/>
		</clipPath>
		<g style="clip-path:url(#SVGID_00000160876588127624863370000000713589277810386072_);">
			<path class="st11" d="M39,305.5h-4c-1.1,0-2-0.9-2-2c0-0.9,0.6-1.7,1.5-1.9c0.2-1.2,1.2-2.1,2.5-2.1s2.2,0.9,2.5,2.1
				c0.9,0.2,1.5,1,1.5,1.9C41,304.6,40.1,305.5,39,305.5z M35,304.5h4c0.5,0,1-0.5,1-1s-0.5-1-1-1h-0.5V302c0-0.8-0.7-1.5-1.5-1.5
				s-1.5,0.7-1.5,1.5v0.5H35c-0.5,0-1,0.5-1,1S34.5,304.5,35,304.5z M38,295h-9c-0.5,0-1,0.5-1,1v7.1c0,2,1,3.8,2.8,4.8l2.8,1.6
				l2.7-1.6c0.2-0.1,0.5-0.3,0.7-0.5l-0.7-0.7c-0.1,0.1-0.3,0.2-0.5,0.3l-2.2,1.4l-2.2-1.4c-1.4-0.8-2.2-2.3-2.2-3.9V296h9v2.5h1
				V296C39,295.5,38.6,295,38,295L38,295z"/>
		</g>
	</g>
	<g>
		<g>
			<line class="st16" x1="136.7" y1="142" x2="257.9" y2="142"/>
			<g>
				<polygon class="st17" points="254.6,146.1 253.9,145.4 257.5,142 253.9,138.6 254.6,137.9 259,142 				"/>
			</g>
		</g>
	</g>
	<g>
		<g>
			<line class="st16" x1="135.5" y1="174.2" x2="257.9" y2="174.2"/>
			<g>
				<polygon class="st17" points="254.6,178.3 253.9,177.6 257.5,174.2 253.9,170.8 254.6,170.1 259,174.2 				"/>
			</g>
		</g>
	</g>
	<g>
		<g>
			<line class="st16" x1="157.4" y1="207.4" x2="257.9" y2="207.4"/>
			<g>
				<polygon class="st17" points="254.6,211.5 253.9,210.8 257.5,207.4 253.9,204 254.6,203.3 259,207.4 				"/>
			</g>
		</g>
	</g>
	<g>
		<g>
			<line class="st16" x1="200.5" y1="270.8" x2="257.9" y2="270.8"/>
			<g>
				<polygon class="st17" points="254.6,274.9 253.9,274.2 257.5,270.8 253.9,267.4 254.6,266.7 259,270.8 				"/>
			</g>
		</g>
	</g>
	<g>
		<g>
			<line class="st16" x1="117.7" y1="303" x2="257.9" y2="303"/>
			<g>
				<polygon class="st17" points="254.6,307.1 253.9,306.4 257.5,303 253.9,299.6 254.6,298.9 259,303 				"/>
			</g>
		</g>
	</g>
</g>
<g id="Nav_paste">
</g>
<g id="Layer_30">
</g>
<g id="Layer_13">
	<text transform="matrix(1 0 0 1 50.1633 307.0027)" class="st11 st22 st23">Security</text>
</g>
<g id="Layer_14">
	<text transform="matrix(1 0 0 1 50.6304 275.0013)" class="st11 st22 st23">Platform Automation</text>
</g>
<g id="Layer_15">
	<text transform="matrix(1 0 0 1 50.0878 243.0029)" class="st11 st22 st23">Observability</text>
</g>
<g id="Layer_16">
	<text transform="matrix(1 0 0 1 50.246 211.308)" class="st11 st22 st23">Infrastructure</text>
</g>
<g id="Layer_17">
	<text transform="matrix(1 0 0 1 49.8708 178.8659)" class="st11 st22 st23">Databases</text>
</g>
<g id="Layer_18">
	<text transform="matrix(1 0 0 1 50.1526 147.0029)" class="st11 st22 st23">Containers</text>
</g>
<g id="Layer_19">
	<text transform="matrix(1 0 0 1 49.9835 98.1709)" class="st11 st22 st23">Resource list</text>
</g>
<g id="Layer_20">
	<text transform="matrix(1 0 0 1 50.436 66.0022)" class="st11 st22 st23">Projects</text>
</g>
<g id="Layer_21">
	<text transform="matrix(1 0 0 1 50.4774 34.0021)" class="st11 st22 st23">Dashboard</text>
</g>
<g id="Layer_22">
	<text transform="matrix(1 0 0 1 277.0524 145.6269)" class="st24 st25 st26">Serverless (Code Engine), Clusters (OpenShift and Kubernetes), Container Registry</text>
</g>
<g id="Layer_23">
	<text transform="matrix(1 0 0 1 276.441 177.8906)" class="st24 st25 st26">Db2, MongoDB, PostgreSQL, Cloudant, Elasticsearch, MySQL, Redis, etc</text>
</g>
<g id="Layer_24">
	<text transform="matrix(1 0 0 1 276.8605 210.9321)" class="st24 st25 st26">VPC Compute, Network, and Storage; Classic Infrastructure; Interconnectivity</text>
</g>
<g id="Layer_33">
	<g>
		<g>
			<line class="st16" x1="150.3" y1="238.6" x2="257.9" y2="238.6"/>
			<g>
				<polygon class="st17" points="254.6,242.7 253.9,242 257.5,238.6 253.9,235.2 254.6,234.5 259,238.6 				"/>
			</g>
		</g>
	</g>
</g>
<g id="Layer_32">
	<text transform="matrix(1 0 0 1 276.4408 242.2586)" class="st24 st25 st26">Logging and Monitoring</text>
</g>
<g id="Layer_26">
	<text transform="matrix(1 0 0 1 276.4411 273.5734)" class="st24 st25 st26">Event Notifications, Schematics, and Toolchains (DevOps)</text>
</g>
<g id="Layer_27">
	<text transform="matrix(1 0 0 1 276.4409 306.2584)" class="st24 st25 st26">Key Protect, Secrets Manager, and Security and Compliance Center</text>
</g>
</svg>
