<?xml version="1.0" encoding="UTF-8"?>
<svg width="14.0100865px" height="13.5112505px" viewBox="0 0 14.0100865 13.5112505" version="1.1" xmlns="http://www.w3.org/2000/svg" xmlns:xlink="http://www.w3.org/1999/xlink">
    <title>Actions / Toggle / thumbs-down / 16</title>
    <g id="Page-1" stroke="none" stroke-width="1" fill="none" fill-rule="evenodd">
        <g id="Actions-/-Toggle-/-thumbs-down-/-16" transform="translate(0.000000, -0.000000)" fill="#000000">
            <path d="M12.38,9 C13.3796197,8.89503703 14.1049026,7.99962606 14,7 L14,4 C14,2.175 13.22,7.10542736e-15 9.5,7.10542736e-15 L0,7.10542736e-15 L0,7 L3.23,7 L5,9.685 L5.5,12.855 L5.5,12.915 C5.57729969,13.2500737 5.87125458,13.4905822 6.215,13.5 L7,13.5 C7.12622255,13.5150007 7.25377745,13.5150007 7.38,13.5 C8.37961973,13.395037 9.10490261,12.4996261 9,11.5 L9,9 L12,9 C12.1262225,9.01500065 12.2537775,9.01500065 12.38,9 Z M3,6 L1,6 L1,1 L3,1 L3,6 Z M13,7 C13,7.72 12.72,8 12,8 L8,8 L8,11.5 C8,12.22 7.72,12.5 7,12.5 L6.435,12.5 L6.365,12 L6,9.315 L4,6.35 L4,1 L9.5,1 C11.89,1 13,1.955 13,4 L13,7 Z" id="Fill"></path>
        </g>
    </g>
</svg>