<?xml version="1.0" encoding="UTF-8"?>
<svg width="14.0100865px" height="13.5112505px" viewBox="0 0 14.0100865 13.5112505" version="1.1" xmlns="http://www.w3.org/2000/svg" xmlns:xlink="http://www.w3.org/1999/xlink">
    <title>Actions / Toggle / thumbs-up / 16</title>
    <g id="Page-1" stroke="none" stroke-width="1" fill="none" fill-rule="evenodd">
        <g id="Actions-/-Toggle-/-thumbs-up-/-16" fill="#000000">
            <path d="M12,4.51125049 L9,4.51125049 L9,2.01125049 C9.10490261,1.01162442 8.37961973,0.116213457 7.38,0.0112504887 C7.25377745,-0.00375016289 7.12622255,-0.00375016289 7,0.0112504887 L6.215,0.0112504887 C5.87125458,0.0206682663 5.57729969,0.261176811 5.5,0.596250489 L5.5,0.656250489 L5,3.82625049 L3.23,6.51125049 L0,6.51125049 L0,13.5112505 L9.5,13.5112505 C13.22,13.5112505 14,11.3362505 14,9.51125049 L14,6.51125049 C14.1049026,5.51162442 13.3796197,4.61621346 12.38,4.51125049 C12.2537775,4.49624984 12.1262225,4.49624984 12,4.51125049 L12,4.51125049 Z M3,12.5112505 L1,12.5112505 L1,7.51125049 L3,7.51125049 L3,12.5112505 Z M13,9.51125049 C13,11.5562505 11.89,12.5112505 9.5,12.5112505 L4,12.5112505 L4,7.16125049 L6,4.19625049 L6.365,1.51125049 L6.435,1.01125049 L7,1.01125049 C7.72,1.01125049 8,1.29125049 8,2.01125049 L8,5.51125049 L12,5.51125049 C12.72,5.51125049 13,5.79125049 13,6.51125049 L13,9.51125049 Z" id="Fill"></path>
        </g>
    </g>
</svg>